<?xml version="1.0" standalone="no"?>
<!DOCTYPE svg PUBLIC "-//W3C//DTD SVG 20010904//EN"
 "http://www.w3.org/TR/2001/REC-SVG-20010904/DTD/svg10.dtd">
<svg version="1.0" xmlns="http://www.w3.org/2000/svg"
 width="366.000000pt" height="366.000000pt" viewBox="0 0 366.000000 366.000000"
 preserveAspectRatio="xMidYMid meet">
<metadata>
Created by potrace 1.14, written by Peter Selinger 2001-2017
</metadata>
<g transform="translate(0.000000,366.000000) scale(0.100000,-0.100000)"
fill="#000000" stroke="none">
<path d="M1722 2143 c-190 -370 -284 -548 -292 -556 -6 -7 -135 238 -319 610
-31 62 -60 111 -64 110 -5 -1 -22 -33 -38 -71 -85 -200 -184 -374 -277 -491
-57 -71 -76 -91 -147 -150 -140 -116 -311 -149 -474 -91 -24 9 -49 16 -55 16
-7 0 -22 -23 -33 -50 l-21 -50 35 -15 c305 -127 621 4 855 357 60 90 148 245
148 260 0 37 45 -41 199 -345 97 -191 181 -347 186 -347 6 0 34 46 63 103 29
56 83 161 120 232 37 72 101 194 142 273 40 78 76 142 79 142 7 0 40 -62 186
-345 182 -353 211 -407 220 -407 4 0 88 157 185 348 97 191 181 349 186 351 5
2 22 -23 38 -54 116 -238 305 -459 463 -541 44 -23 107 -48 139 -57 108 -29
268 -16 376 29 l37 16 -23 52 c-13 29 -26 52 -30 51 -52 -19 -150 -43 -183
-46 -105 -9 -259 40 -338 108 -97 83 -198 200 -253 295 -40 67 -122 218 -122
223 0 3 -17 43 -38 89 -22 45 -42 92 -46 102 -12 34 -3 50 -243 -428 -80 -158
-148 -284 -153 -280 -9 10 -53 94 -200 379 -157 304 -194 375 -201 375 -3 0
-51 -89 -107 -197z"/>
</g>
</svg>
