<svg width="53" height="56" viewBox="0 0 53 56" fill="none" xmlns="http://www.w3.org/2000/svg">
<path d="M52.3649 14.8887C52.3649 13.1931 52.2304 11.5044 51.8498 9.8537C51.1663 6.84685 49.5546 4.54993 47.1429 2.86299C45.9022 2.00143 44.5368 1.47243 43.0855 1.19328C41.9711 0.977892 40.8422 0.879674 39.7116 0.852104C39.6274 0.843488 39.5351 0.824534 39.4411 0.815918H13.4754C13.1466 0.843488 12.8178 0.860719 12.4889 0.87795C10.8773 0.976168 9.27542 1.15537 7.75612 1.80154C4.8714 3.0129 2.78682 5.13062 1.57203 8.18227C1.1509 9.21442 0.938716 10.3086 0.788082 11.4217C0.661744 12.3195 0.593716 13.2259 0.56942 14.1322C0.56942 14.2046 0.553223 14.2752 0.553223 14.3476V42.4293C0.56942 42.7533 0.587237 43.0755 0.603434 43.3995C0.713575 45.2759 0.940336 47.1335 1.68379 48.8566C3.08485 52.115 5.4383 54.2586 8.66965 55.2907C9.57183 55.5871 10.5177 55.7215 11.462 55.8111C12.6606 55.9369 13.8576 55.9541 15.0562 55.9541H38.8791C40.0096 55.9541 41.1402 55.8731 42.2708 55.7215C44.0508 55.4785 45.7208 54.922 47.232 53.864C49.0461 52.5889 50.4131 50.9019 51.2894 48.7928C51.6943 47.8227 51.9227 46.7923 52.0911 45.7498C52.3357 44.1973 52.3859 42.6258 52.3859 41.056C52.3778 32.3318 52.3859 23.6094 52.3778 14.8852L52.3649 14.8887ZM38.4952 24.0505V37.1721C38.4952 38.1319 38.3689 39.0744 37.9639 39.9446C37.3403 41.299 36.328 42.1519 34.9691 42.5655C34.2175 42.7981 33.4417 42.9239 32.6577 42.9601C30.6071 43.0686 28.8271 41.5867 28.4643 39.4328C28.1517 37.6563 28.9534 35.6988 30.7076 34.7838C31.3992 34.4254 32.1507 34.21 32.9007 34.0481C33.7186 33.8602 34.5366 33.6897 35.3465 33.4915C35.9458 33.3485 36.3329 32.9625 36.4511 32.306C36.4851 32.163 36.4932 32.0096 36.4932 31.8666C36.4932 27.6932 36.4932 23.5198 36.4932 19.3567C36.4932 19.2137 36.4673 19.069 36.4349 18.9346C36.3507 18.5848 36.1142 18.378 35.7773 18.3952C35.4307 18.4125 35.0938 18.4762 34.7569 18.5486C33.1112 18.8898 31.4672 19.2395 29.8297 19.598L21.8412 21.3125C21.8072 21.3211 21.7651 21.34 21.7311 21.34C21.1318 21.5192 20.9212 21.807 20.8953 22.4704C20.8872 22.5686 20.8953 22.6686 20.8953 22.7668C20.8872 28.7443 20.8953 34.7218 20.8872 40.6976C20.8872 41.6677 20.7852 42.6189 20.424 43.5149C19.8247 44.9865 18.7621 45.9118 17.3287 46.3512C16.569 46.5838 15.7932 46.7199 14.9995 46.7458C12.9328 46.8268 11.211 45.3638 10.8579 43.2013C10.5534 41.3352 11.3551 39.3243 13.3458 38.4265C14.1216 38.0853 14.9234 37.8975 15.7413 37.7183C16.3568 37.5839 16.9821 37.4495 17.5975 37.3151C18.4236 37.1273 18.8545 36.5707 18.8966 35.673V35.3318C18.8966 28.5289 18.8966 21.726 18.8966 14.9231C18.8966 14.6354 18.9306 14.3493 18.9889 14.0702C19.1411 13.4154 19.5801 13.038 20.1697 12.8847C20.7188 12.7313 21.284 12.6245 21.8396 12.4987C23.4253 12.1575 25.0029 11.8163 26.5886 11.4838L31.4899 10.4241C32.9412 10.1191 34.3827 9.80545 35.834 9.50046C36.3069 9.40224 36.788 9.29368 37.2674 9.2575C37.9331 9.19547 38.398 9.64348 38.466 10.362C38.4822 10.5326 38.492 10.7032 38.492 10.8738C38.492 15.2626 38.492 19.6514 38.492 24.0402L38.4952 24.0505Z" fill="white"/>
</svg>
